<svg width="32" height="30" viewBox="0 0 32 30" fill="none" xmlns="http://www.w3.org/2000/svg">
<path d="M30.2002 18.1867L16.0002 28.5067L1.80019 18.1867C1.60983 18.0467 1.46862 17.85 1.39677 17.6249C1.32493 17.3998 1.32612 17.1577 1.40019 16.9333L3.02686 11.8933L6.28019 1.88001C6.31175 1.79842 6.36198 1.72536 6.42686 1.66668C6.53251 1.57017 6.67043 1.51666 6.81353 1.51666C6.95662 1.51666 7.09454 1.57017 7.20019 1.66668C7.2687 1.7329 7.31918 1.8155 7.34686 1.90668L10.6002 11.8933H21.4002L24.6535 1.88001C24.6851 1.79842 24.7353 1.72536 24.8002 1.66668C24.9058 1.57017 25.0438 1.51666 25.1869 1.51666C25.33 1.51666 25.4679 1.57017 25.5735 1.66668C25.642 1.7329 25.6925 1.8155 25.7202 1.90668L28.9735 11.92L30.6669 16.9333C30.7342 17.1647 30.7252 17.4115 30.6411 17.6373C30.5571 17.8631 30.4024 18.0557 30.2002 18.1867V18.1867Z" stroke="white" stroke-width="2" stroke-linecap="round" stroke-linejoin="round"/>
</svg>
